<?xml version="1.0" encoding="UTF-8"?>
<svg xmlns="http://www.w3.org/2000/svg"
     viewBox="0 0 21 21"
     width="100" height="100">
  <defs>
    <linearGradient id="sideroGrad" x1="0%" y1="0%" x2="0%" y2="100%">
      <stop offset="0%"   stop-color="#FFD15C"/>
      <stop offset="50%"  stop-color="#FF8A00"/>
      <stop offset="100%" stop-color="#E31B23"/>
    </linearGradient>
  </defs>

  <!-- gradient square background -->
  <rect width="21" height="21" fill="url(#sideroGrad)"/>

  <!-- group to inset & scale H for a 2-unit margin -->
  <g transform="translate(3 3) scale(0.71904762)">
    <!-- original Hetzner “H” -->
    <path d="M20.4,0h-2.9c-0.7,0-0.9,0.3-0.9,0.9v7.4H4.8V0.9C4.8,0.3,4.6,0,3.9,0h-3C0.3,0,0,0.3,0,0.9v19.1
             C0,20.7,0.3,21,0.9,21h3c0.7,0,0.9-0.3,0.9-0.9v-7.6h11.7v7.6c0,0.7,0.3,0.9,0.9,0.9h2.9c0.7,0,0.9-0.3,0.9-0.9V0.9
             C21.3,0.3,21.1,0,20.4,0z"
          fill="#FFFFFF"/>
  </g>
</svg>
